<svg width="189" height="189" viewBox="0 0 189 189" fill="none" xmlns="http://www.w3.org/2000/svg">
<rect width="189" height="189" fill="black" style="fill:black;fill-opacity:1;"/>
<path d="M81.3348 125.539L74.3753 104.028C73.2681 100.548 72.6354 100.074 67.8903 100.074H44.0066C40.0523 100.074 39.1033 100.548 37.9961 103.87L32.4602 120.478C30.0876 127.595 28.9804 131.866 28.9804 133.606C28.9804 135.504 29.7713 136.453 33.5674 136.769L38.787 137.244C39.8942 138.035 39.8942 140.565 38.4706 141.198C34.3582 140.882 29.4549 140.882 22.0209 140.723C16.8013 140.723 11.1072 141.04 6.8366 141.198C5.88757 140.565 5.57123 138.035 6.52026 137.244L11.7399 136.769C15.536 136.453 19.0157 134.713 21.2301 129.019C24.0771 121.743 28.5059 111.462 35.1491 93.7468L51.2824 51.0409C53.4968 45.3468 54.4458 42.3415 53.9713 39.8108C57.7674 38.7036 60.4563 35.8565 62.1962 33.8003C63.1452 33.8003 64.2524 34.1167 64.5687 35.2239C66.6249 42.1834 69.1557 49.4592 71.5282 56.4187L93.1975 120.003C97.7845 133.606 99.8407 135.978 106.642 136.769L110.913 137.244C112.02 138.035 111.703 140.565 110.913 141.198C104.428 140.882 98.8917 140.723 91.774 140.723C84.1818 140.723 78.1714 141.04 73.5844 141.198C72.3191 140.565 72.1609 138.035 73.2681 137.244L77.855 136.769C81.1766 136.453 83.391 135.504 83.391 133.922C83.391 132.182 82.6001 129.335 81.3348 125.539ZM53.0223 62.4291L43.0576 89.9508C41.7922 93.5887 41.9504 93.7468 46.3791 93.7468H65.8341C70.421 93.7468 70.7374 93.1142 69.3138 88.8436L60.7726 63.0618C59.5073 59.2657 58.0837 54.9951 57.1347 53.0971H56.8184C56.3439 53.888 54.7622 57.684 53.0223 62.4291ZM177.668 113.993C177.668 131.391 164.54 143.254 143.978 143.254C130.691 143.254 122.308 139.142 119.303 137.402C117.405 133.922 115.349 122.692 115.032 115.258C115.823 114.151 118.196 113.834 118.829 114.783C121.201 122.85 127.686 138.351 146.034 138.351C159.32 138.351 165.805 129.651 165.805 120.161C165.805 113.202 164.382 105.451 152.835 98.0174L137.809 88.2109C129.9 82.9913 120.727 73.9756 120.727 61.0056C120.727 45.9794 132.431 33.8003 152.993 33.8003C157.897 33.8003 163.591 34.7494 167.703 35.8565C169.759 36.4892 171.974 36.8056 173.239 36.8056C174.663 40.6017 176.086 49.4592 176.086 56.1023C175.453 57.0514 172.923 57.5259 172.132 56.5769C170.076 48.9847 165.805 38.7036 150.621 38.7036C135.12 38.7036 131.798 48.9847 131.798 56.2605C131.798 65.4344 139.391 72.0775 145.243 75.7154L157.897 83.624C167.861 89.7926 177.668 98.9665 177.668 113.993Z" fill="white" style="fill:white;fill-opacity:1;"/>
</svg>
